<svg width="91" height="91" viewBox="0 0 91 91" fill="none" xmlns="http://www.w3.org/2000/svg">
<g clip-path="url(#clip0_21_115)">
<path fill-rule="evenodd" clip-rule="evenodd" d="M32.1513 1.98953C36.3725 0.696048 40.855 0 45.5 0C49.7946 0 53.9502 0.594988 57.8889 1.70703C57.053 8.08002 51.6011 13 45 13C38.4968 13 33.1089 8.22483 32.1513 1.98953ZM1.98953 58.8487C0.696048 54.6275 0 50.145 0 45.5C0 41.2054 0.594988 37.0498 1.70703 33.1111C8.08002 33.947 13 39.3989 13 46C13 52.5032 8.22483 57.8911 1.98953 58.8487ZM24.1742 85.7031C16.4483 81.5963 10.0467 75.3276 5.77619 67.7039C10.8735 63.7908 18.2058 64.1677 22.8726 68.8345C27.4703 73.4322 27.9042 80.6171 24.1742 85.7031ZM57.8889 89.293C53.9502 90.405 49.7946 91 45.5 91C40.855 91 36.3725 90.304 32.1513 89.0105C33.1089 82.7752 38.4968 78 45 78C51.6011 78 57.0531 82.92 57.8889 89.293ZM85.2238 67.7039C80.9533 75.3276 74.5517 81.5963 66.8258 85.7031C63.0958 80.6171 63.5297 73.4322 68.1274 68.8345C72.7942 64.1677 80.1265 63.7908 85.2238 67.7039ZM89.293 33.1111C90.405 37.0498 91 41.2054 91 45.5C91 50.145 90.304 54.6275 89.0105 58.8487C82.7752 57.8911 78 52.5032 78 46C78 39.3989 82.92 33.947 89.293 33.1111ZM67.7039 5.77619C75.3276 10.0467 81.5963 16.4483 85.703 24.1742C80.6171 27.9042 73.4322 27.4703 68.8345 22.8726C64.1677 18.2058 63.7908 10.8735 67.7039 5.77619ZM5.29695 24.1742C9.40372 16.4483 15.6724 10.0467 23.2961 5.77619C27.2092 10.8735 26.8323 18.2058 22.1655 22.8726C17.5678 27.4703 10.383 27.9042 5.29695 24.1742Z" fill="#78350F"/>
<path d="M44.7678 43.2938L34.2059 25L23.644 43.2938C20.6176 47.8529 20 49.1414 20 52.7941C20 60.6398 26.3602 67 34.2059 67C42.0516 67 48.4118 60.6398 48.4118 52.7941C48.4118 49.1414 47.7941 47.8529 44.7678 43.2938Z" fill="#FEF3C7"/>
<path d="M56.0619 43.2938L45.5 25L34.9381 43.2938C31.9118 47.8529 31.2941 49.1414 31.2941 52.7941C31.2941 60.6398 37.6543 67 45.5 67C53.3457 67 59.7059 60.6398 59.7059 52.7941C59.7059 49.1414 59.0882 47.8529 56.0619 43.2938Z" fill="#FCD34D"/>
<path d="M67.7678 43.2938L57.2059 25L46.644 43.2938C43.6176 47.8529 43 49.1414 43 52.7941C43 60.6398 49.3602 67 57.2059 67C65.0516 67 71.4118 60.6398 71.4118 52.7941C71.4118 49.1414 70.7941 47.8529 67.7678 43.2938Z" fill="#F59E0B"/>
</g>
<defs>
<clipPath id="clip0_21_115">
<rect width="91" height="91" fill="white"/>
</clipPath>
</defs>
</svg>
