<svg width="91" height="91" viewBox="0 0 91 91" fill="none" xmlns="http://www.w3.org/2000/svg">
<g clip-path="url(#clip0_7_98)">
<path fill-rule="evenodd" clip-rule="evenodd" d="M56.3951 29.7402C58.7835 28.4301 61.3212 30.7432 60.2373 33.2425L52.5845 50.889C52.391 51.3353 52.1081 51.7088 51.7704 52.0007C51.5109 52.364 51.1652 52.6801 50.7387 52.9141L33.8747 62.1647C31.4863 63.4748 28.9486 61.1617 30.0324 58.6625L37.6852 41.0159C37.8788 40.5696 38.1616 40.1961 38.4994 39.9042C38.7588 39.541 39.1046 39.2248 39.5311 38.9908L56.3951 29.7402ZM43.2038 48.0711C44.4283 49.1872 46.2855 49.1435 47.352 47.9734C48.4186 46.8033 48.2905 44.95 47.066 43.8338C45.8415 42.7177 43.9843 42.7614 42.9177 43.9315C41.8512 45.1016 41.9793 46.955 43.2038 48.0711Z" fill="#C4B5FD"/>
<path fill-rule="evenodd" clip-rule="evenodd" d="M32.1513 1.98953C36.3725 0.696048 40.855 0 45.5 0C49.7946 0 53.9502 0.594988 57.8889 1.70703C57.053 8.08002 51.6011 13 45 13C38.4968 13 33.1089 8.22483 32.1513 1.98953ZM1.98953 58.8487C0.696048 54.6275 0 50.145 0 45.5C0 41.2054 0.594988 37.0498 1.70703 33.1111C8.08002 33.947 13 39.3989 13 46C13 52.5032 8.22483 57.8911 1.98953 58.8487ZM24.1742 85.7031C16.4483 81.5963 10.0467 75.3276 5.77619 67.7039C10.8735 63.7908 18.2058 64.1677 22.8726 68.8345C27.4703 73.4322 27.9042 80.6171 24.1742 85.7031ZM57.8889 89.293C53.9502 90.405 49.7946 91 45.5 91C40.855 91 36.3725 90.304 32.1513 89.0105C33.1089 82.7752 38.4968 78 45 78C51.6011 78 57.0531 82.92 57.8889 89.293ZM85.2238 67.7039C80.9533 75.3276 74.5517 81.5963 66.8258 85.7031C63.0958 80.6171 63.5297 73.4322 68.1274 68.8345C72.7942 64.1677 80.1265 63.7908 85.2238 67.7039ZM89.293 33.1111C90.405 37.0498 91 41.2054 91 45.5C91 50.145 90.304 54.6275 89.0105 58.8487C82.7752 57.8911 78 52.5032 78 46C78 39.3989 82.92 33.947 89.293 33.1111ZM67.7039 5.77619C75.3276 10.0467 81.5963 16.4483 85.703 24.1742C80.6171 27.9042 73.4322 27.4703 68.8345 22.8726C64.1677 18.2058 63.7908 10.8735 67.7039 5.77619ZM5.29695 24.1742C9.40372 16.4483 15.6724 10.0467 23.2961 5.77619C27.2092 10.8735 26.8323 18.2058 22.1655 22.8726C17.5678 27.4703 10.383 27.9042 5.29695 24.1742Z" fill="#4C1D95"/>
<circle cx="45" cy="46" r="21" fill="#8B5CF6"/>
<rect x="45" y="25" width="21" height="21" rx="4" fill="#C4B5FD"/>
</g>
<defs>
<clipPath id="clip0_7_98">
<rect width="91" height="91" fill="white"/>
</clipPath>
</defs>
</svg>
