<svg width="20" height="18" viewBox="0 0 20 18" fill="none" xmlns="http://www.w3.org/2000/svg">
<path d="M15.3125 7.94531C15.6042 8.46094 16.0208 8.83854 16.5625 9.07812C16.2083 9.33854 15.8125 9.58073 15.375 9.80469C14.9375 10.0234 14.4583 10.2135 13.9375 10.375C14.2135 11.2135 14.3516 11.9896 14.3516 12.7031C14.3516 13.6302 14.1536 14.4505 13.7578 15.1641C13.3672 15.8828 12.8281 16.4479 12.1406 16.8594C11.4531 17.2708 10.6667 17.4766 9.78125 17.4766L9.54688 17.4688C9.71354 17.2448 9.84635 16.9974 9.94531 16.7266C10.0443 16.4557 10.0938 16.1667 10.0938 15.8594C10.0938 15.5885 10.0521 15.3255 9.96875 15.0703C10.4688 15.0339 10.9062 14.8802 11.2812 14.6094C11.6615 14.3333 11.9557 13.9635 12.1641 13.5C12.3724 13.0312 12.4766 12.4974 12.4766 11.8984C12.4766 11.5234 12.4401 11.1432 12.3672 10.7578C11.9714 10.8307 11.5599 10.8854 11.1328 10.9219C10.7057 10.9583 10.2604 10.9766 9.79688 10.9766C9.33333 10.9766 8.88281 10.9583 8.44531 10.9219C8.01302 10.8802 7.59635 10.8255 7.19531 10.7578C7.16406 10.9505 7.13802 11.1432 7.11719 11.3359C7.09635 11.5286 7.08594 11.7161 7.08594 11.8984C7.08594 12.388 7.15885 12.8359 7.30469 13.2422C6.92969 13.2682 6.57812 13.3698 6.25 13.5469C5.92708 13.7188 5.65365 13.9453 5.42969 14.2266C5.28906 13.7474 5.21875 13.2396 5.21875 12.7031C5.21875 12.349 5.25521 11.9766 5.32812 11.5859C5.40104 11.1901 5.5 10.7865 5.625 10.375C4.59375 10.0417 3.71354 9.60677 2.98438 9.07031C2.26042 8.53385 1.70573 7.9401 1.32031 7.28906C0.934896 6.63281 0.742188 5.96615 0.742188 5.28906C0.742188 4.1276 1.13281 3.21354 1.91406 2.54688C1.92969 3.03125 2.0651 3.47135 2.32031 3.86719C2.58073 4.25781 2.91406 4.5599 3.32031 4.77344C3.20573 5.03385 3.14844 5.32552 3.14844 5.64844C3.14844 6.00781 3.2474 6.40104 3.44531 6.82812C3.64844 7.25521 3.96875 7.67188 4.40625 8.07812C4.84375 8.47917 5.41667 8.82031 6.125 9.10156C6.44271 8.3776 6.83594 7.66146 7.30469 6.95312C7.77865 6.23958 8.29948 5.57031 8.86719 4.94531C8.53906 4.6849 8.20052 4.45573 7.85156 4.25781C7.5026 4.0599 7.14844 3.90104 6.78906 3.78125C7.02865 3.38021 7.14844 2.9375 7.14844 2.45312C7.14844 2.41667 7.14844 2.3776 7.14844 2.33594C7.14844 2.29427 7.14583 2.2526 7.14062 2.21094C7.59896 2.42448 8.04948 2.6849 8.49219 2.99219C8.9401 3.29948 9.3724 3.64323 9.78906 4.02344C10.5703 3.3099 11.3958 2.73438 12.2656 2.29688C13.1354 1.85938 14.0026 1.64062 14.8672 1.64062C15.5911 1.64062 16.2214 1.76042 16.7578 2C17.2943 2.23438 17.7266 2.55208 18.0547 2.95312C18.388 3.35417 18.6146 3.80469 18.7344 4.30469C18.3698 4.13281 17.9896 4.04688 17.5938 4.04688C17.3229 4.04688 17.0625 4.08594 16.8125 4.16406C16.5625 4.24219 16.3333 4.35417 16.125 4.5C15.9375 4.20833 15.6719 3.98177 15.3281 3.82031C14.9844 3.65365 14.5781 3.57031 14.1094 3.57031C13.526 3.57031 12.9427 3.69531 12.3594 3.94531C11.7812 4.1901 11.2318 4.52344 10.7109 4.94531C11.2786 5.57031 11.7969 6.23958 12.2656 6.95312C12.7344 7.66146 13.1328 8.38021 13.4609 9.10938C13.8464 8.95312 14.1927 8.77604 14.5 8.57812C14.8125 8.375 15.0833 8.16406 15.3125 7.94531ZM9.79688 9.73438C10.2135 9.73438 10.6094 9.71615 10.9844 9.67969C11.3594 9.64323 11.7135 9.59375 12.0469 9.53125C11.8125 8.85938 11.5 8.20312 11.1094 7.5625C10.724 6.92188 10.2839 6.33594 9.78906 5.80469C9.28906 6.33594 8.84375 6.92188 8.45312 7.5625C8.06771 8.19792 7.75781 8.85156 7.52344 9.52344C7.85677 9.59115 8.21094 9.64323 8.58594 9.67969C8.96615 9.71615 9.36979 9.73438 9.79688 9.73438ZM4.53125 4.11719C4.22396 4.11719 3.94531 4.04427 3.69531 3.89844C3.44531 3.7474 3.24479 3.54688 3.09375 3.29688C2.94271 3.04167 2.86719 2.76042 2.86719 2.45312C2.86719 1.99479 3.02865 1.60417 3.35156 1.28125C3.67448 0.958333 4.06771 0.796875 4.53125 0.796875C4.99479 0.796875 5.38802 0.958333 5.71094 1.28125C6.03385 1.60417 6.19531 1.99479 6.19531 2.45312C6.19531 2.76042 6.11979 3.04167 5.96875 3.29688C5.82292 3.54688 5.6224 3.7474 5.36719 3.89844C5.11719 4.04427 4.83854 4.11719 4.53125 4.11719ZM17.5938 8.32812C17.2917 8.32812 17.013 8.25521 16.7578 8.10938C16.5078 7.95833 16.3073 7.75781 16.1562 7.50781C16.0052 7.2526 15.9297 6.97135 15.9297 6.66406C15.9297 6.35677 16.0052 6.07812 16.1562 5.82812C16.3073 5.57812 16.5078 5.3776 16.7578 5.22656C17.013 5.07552 17.2917 5 17.5938 5C17.901 5 18.1797 5.07552 18.4297 5.22656C18.6849 5.3776 18.8854 5.57812 19.0312 5.82812C19.1823 6.07812 19.2578 6.35677 19.2578 6.66406C19.2578 6.97135 19.1823 7.2526 19.0312 7.50781C18.8854 7.75781 18.6849 7.95833 18.4297 8.10938C18.1797 8.25521 17.901 8.32812 17.5938 8.32812ZM7.46875 17.5234C7.16146 17.5234 6.88281 17.4479 6.63281 17.2969C6.38281 17.1458 6.18229 16.9453 6.03125 16.6953C5.88021 16.4453 5.80469 16.1667 5.80469 15.8594C5.80469 15.5521 5.88021 15.2734 6.03125 15.0234C6.18229 14.7734 6.38281 14.5729 6.63281 14.4219C6.88281 14.2708 7.16146 14.1953 7.46875 14.1953C7.77604 14.1953 8.05469 14.2708 8.30469 14.4219C8.5599 14.5729 8.76042 14.7734 8.90625 15.0234C9.05729 15.2734 9.13281 15.5521 9.13281 15.8594C9.13281 16.1667 9.05729 16.4453 8.90625 16.6953C8.76042 16.9505 8.5599 17.151 8.30469 17.2969C8.05469 17.4479 7.77604 17.5234 7.46875 17.5234Z" fill="#64748B"/>
</svg>
