<svg width="20" height="17" viewBox="0 0 20 17" fill="none" xmlns="http://www.w3.org/2000/svg">
<path d="M10 3.86719C9.30729 3.86719 8.64583 3.97917 8.01562 4.20312C7.39062 4.42188 6.82031 4.72656 6.30469 5.11719C6.20052 5.19531 6.08854 5.23177 5.96875 5.22656C5.84896 5.21615 5.74479 5.16667 5.65625 5.07812L3.76562 3.17969C3.65104 3.07031 3.59635 2.94531 3.60156 2.80469C3.60677 2.65885 3.66927 2.53906 3.78906 2.44531C4.63281 1.7474 5.58333 1.20052 6.64062 0.804688C7.69792 0.408854 8.81771 0.210938 10 0.210938C11.1771 0.210938 12.2943 0.408854 13.3516 0.804688C14.4141 1.20052 15.3672 1.7474 16.2109 2.44531C16.3307 2.53906 16.3932 2.65885 16.3984 2.80469C16.4036 2.94531 16.349 3.07031 16.2344 3.17969L14.3438 5.07812C14.2552 5.16667 14.151 5.21615 14.0312 5.22656C13.9167 5.23698 13.8125 5.20312 13.7188 5.125C13.1979 4.72917 12.6224 4.42188 11.9922 4.20312C11.362 3.97917 10.6979 3.86719 10 3.86719ZM0.234375 9.96875C0.234375 8.79167 0.432292 7.67448 0.828125 6.61719C1.22396 5.5599 1.77083 4.60677 2.46875 3.75781C2.56771 3.63802 2.6875 3.57812 2.82812 3.57812C2.97396 3.57292 3.10156 3.625 3.21094 3.73438L5.10938 5.63281C5.20312 5.72135 5.25 5.82552 5.25 5.94531C5.25521 6.0651 5.21875 6.17448 5.14062 6.27344C4.75 6.78906 4.44271 7.36198 4.21875 7.99219C4 8.6224 3.89062 9.28125 3.89062 9.96875C3.89062 10.6823 4.00521 11.362 4.23438 12.0078C4.46875 12.6536 4.79948 13.2422 5.22656 13.7734C5.29948 13.8724 5.33333 13.9766 5.32812 14.0859C5.32812 14.1953 5.28385 14.2917 5.19531 14.375L3.28125 16.2969C3.17188 16.4062 3.04688 16.4609 2.90625 16.4609C2.77083 16.4661 2.65625 16.4115 2.5625 16.2969C1.83333 15.4427 1.26302 14.4766 0.851562 13.3984C0.440104 12.3203 0.234375 11.1771 0.234375 9.96875ZM19.7656 9.96875C19.7656 11.1771 19.5599 12.3203 19.1484 13.3984C18.737 14.4714 18.1719 15.4323 17.4531 16.2812C17.3542 16.3958 17.2344 16.4531 17.0938 16.4531C16.9531 16.4583 16.8281 16.4062 16.7188 16.2969L14.7969 14.375C14.7135 14.2917 14.6693 14.1953 14.6641 14.0859C14.6641 13.9766 14.7005 13.8724 14.7734 13.7734C15.2005 13.2422 15.5286 12.6536 15.7578 12.0078C15.9922 11.362 16.1094 10.6823 16.1094 9.96875C16.1094 9.28125 15.9974 8.6224 15.7734 7.99219C15.5547 7.36198 15.25 6.78906 14.8594 6.27344C14.7812 6.17448 14.7422 6.0651 14.7422 5.94531C14.7474 5.82552 14.7969 5.72135 14.8906 5.63281L16.7891 3.73438C16.8984 3.625 17.0234 3.57031 17.1641 3.57031C17.3047 3.57031 17.4219 3.6276 17.5156 3.74219C18.2188 4.59115 18.7682 5.54688 19.1641 6.60938C19.5651 7.67188 19.7656 8.79167 19.7656 9.96875ZM9.95312 13.3047C9.57812 13.3047 9.21875 13.2578 8.875 13.1641C8.53646 13.0651 8.24479 12.9245 8 12.7422C7.75521 12.5547 7.58073 12.3229 7.47656 12.0469C7.41406 11.9115 7.38281 11.7865 7.38281 11.6719C7.38281 11.4896 7.44271 11.349 7.5625 11.25C7.68229 11.151 7.83073 11.1016 8.00781 11.1016C8.15365 11.1016 8.27344 11.138 8.36719 11.2109C8.46094 11.2786 8.54427 11.3828 8.61719 11.5234C8.73177 11.7891 8.90104 11.9792 9.125 12.0938C9.35417 12.2031 9.64062 12.2578 9.98438 12.2578C10.224 12.2578 10.4453 12.2318 10.6484 12.1797C10.8568 12.1224 11.0208 12.0339 11.1406 11.9141C11.2656 11.7891 11.3281 11.625 11.3281 11.4219C11.3281 11.1458 11.2083 10.9479 10.9688 10.8281C10.7292 10.7083 10.4453 10.612 10.1172 10.5391L9.38281 10.3828C9.03906 10.3047 8.71615 10.1953 8.41406 10.0547C8.11719 9.90885 7.875 9.71094 7.6875 9.46094C7.50521 9.21094 7.41406 8.89062 7.41406 8.5C7.41406 8.06771 7.53385 7.70833 7.77344 7.42188C8.01823 7.13021 8.33333 6.90885 8.71875 6.75781C9.10417 6.60677 9.51562 6.53125 9.95312 6.53125C10.3802 6.53125 10.7839 6.60156 11.1641 6.74219C11.5495 6.88281 11.862 7.07812 12.1016 7.32812C12.3464 7.57812 12.4688 7.86719 12.4688 8.19531C12.4688 8.3724 12.4062 8.5026 12.2812 8.58594C12.1615 8.66927 12.026 8.71094 11.875 8.71094C11.7292 8.71094 11.6042 8.67708 11.5 8.60938C11.3958 8.53646 11.3073 8.43229 11.2344 8.29688C11.1302 8.05208 10.9661 7.8724 10.7422 7.75781C10.5234 7.63802 10.2656 7.57812 9.96875 7.57812C9.75 7.57812 9.54427 7.60938 9.35156 7.67188C9.16406 7.72917 9.01302 7.81771 8.89844 7.9375C8.78385 8.05208 8.72656 8.20052 8.72656 8.38281C8.72656 8.54427 8.77083 8.67969 8.85938 8.78906C8.95312 8.89323 9.08594 8.98177 9.25781 9.05469C9.4349 9.1276 9.64323 9.19271 9.88281 9.25L10.6094 9.41406C10.9896 9.4974 11.3333 9.61198 11.6406 9.75781C11.9479 9.89844 12.1901 10.0911 12.3672 10.3359C12.5443 10.5755 12.6328 10.8906 12.6328 11.2812C12.6328 11.7552 12.5052 12.1406 12.25 12.4375C11.9948 12.7344 11.6615 12.9531 11.25 13.0938C10.8438 13.2344 10.4115 13.3047 9.95312 13.3047ZM9.99219 14.1719C9.92969 14.1719 9.875 14.1484 9.82812 14.1016C9.78125 14.0599 9.75781 14.0078 9.75781 13.9453V5.89062C9.75781 5.82812 9.78125 5.77344 9.82812 5.72656C9.875 5.67969 9.92969 5.65625 9.99219 5.65625C10.0547 5.65625 10.1068 5.67969 10.1484 5.72656C10.1953 5.77344 10.2188 5.82812 10.2188 5.89062V13.9453C10.2188 14.0078 10.1953 14.0599 10.1484 14.1016C10.1068 14.1484 10.0547 14.1719 9.99219 14.1719Z" fill="#64748B"/>
</svg>
