<svg width="18" height="20" viewBox="0 0 18 20" fill="none" xmlns="http://www.w3.org/2000/svg">
<path d="M10.5 19.875L11.4141 18H15.2422C15.3464 18 15.4245 17.9714 15.4766 17.9141C15.5339 17.862 15.5625 17.7865 15.5625 17.6875V7.07031C15.5625 6.96615 15.5339 6.88802 15.4766 6.83594C15.4245 6.77865 15.3464 6.75 15.2422 6.75H12.125V4.88281H15.6719C16.2292 4.88281 16.6615 5.04948 16.9688 5.38281C17.276 5.71094 17.4297 6.16927 17.4297 6.75781V18C17.4297 18.5833 17.276 19.0417 16.9688 19.375C16.6615 19.7083 16.2292 19.875 15.6719 19.875H10.5ZM12.125 10.2188V8.63281H14.1406C14.2969 8.63281 14.375 8.71354 14.375 8.875V9.97656C14.375 10.138 14.2969 10.2188 14.1406 10.2188H12.125ZM12.125 12.7969V11.2109H14.1406C14.2969 11.2109 14.375 11.2917 14.375 11.4531V12.5625C14.375 12.7188 14.2969 12.7969 14.1406 12.7969H12.125ZM12.125 15.3672V13.7891H14.1406C14.2969 13.7891 14.375 13.8698 14.375 14.0312V15.1406C14.375 15.2917 14.2969 15.3672 14.1406 15.3672H12.125ZM2.32031 19.875C1.76823 19.875 1.33594 19.7083 1.02344 19.375C0.716146 19.0417 0.5625 18.5833 0.5625 18V2.71094C0.5625 2.1224 0.716146 1.66406 1.02344 1.33594C1.33594 1.00781 1.76823 0.84375 2.32031 0.84375H11.1328C11.6901 0.84375 12.1224 1.00781 12.4297 1.33594C12.737 1.66406 12.8906 2.1224 12.8906 2.71094V18C12.8906 18.5833 12.737 19.0417 12.4297 19.375C12.1224 19.7083 11.6901 19.875 11.1328 19.875H2.32031ZM2.75781 18H10.7031C10.8021 18 10.8776 17.9714 10.9297 17.9141C10.987 17.862 11.0156 17.7865 11.0156 17.6875V3.03125C11.0156 2.92708 10.987 2.84896 10.9297 2.79688C10.8776 2.73958 10.8021 2.71094 10.7031 2.71094H2.75781C2.65365 2.71094 2.57292 2.73958 2.51562 2.79688C2.46354 2.84896 2.4375 2.92708 2.4375 3.03125V17.6875C2.4375 17.7865 2.46354 17.862 2.51562 17.9141C2.57292 17.9714 2.65365 18 2.75781 18ZM4.35938 6.98438C4.16667 6.98438 4.07031 6.88281 4.07031 6.67969V5.27344C4.07031 5.07552 4.16667 4.97656 4.35938 4.97656H5.79688C5.99479 4.97656 6.09375 5.07552 6.09375 5.27344V6.67969C6.09375 6.88281 5.99479 6.98438 5.79688 6.98438H4.35938ZM7.64844 6.98438C7.45573 6.98438 7.35938 6.88281 7.35938 6.67969V5.27344C7.35938 5.07552 7.45573 4.97656 7.64844 4.97656H9.08594C9.28385 4.97656 9.38281 5.07552 9.38281 5.27344V6.67969C9.38281 6.88281 9.28385 6.98438 9.08594 6.98438H7.64844ZM4.35938 9.85156C4.16667 9.85156 4.07031 9.75 4.07031 9.54688V8.14844C4.07031 7.94531 4.16667 7.84375 4.35938 7.84375H5.79688C5.99479 7.84375 6.09375 7.94531 6.09375 8.14844V9.54688C6.09375 9.75 5.99479 9.85156 5.79688 9.85156H4.35938ZM7.64844 9.85156C7.45573 9.85156 7.35938 9.75 7.35938 9.54688V8.14844C7.35938 7.94531 7.45573 7.84375 7.64844 7.84375H9.08594C9.28385 7.84375 9.38281 7.94531 9.38281 8.14844V9.54688C9.38281 9.75 9.28385 9.85156 9.08594 9.85156H7.64844ZM4.35938 12.7188C4.16667 12.7188 4.07031 12.6172 4.07031 12.4141V11.0156C4.07031 10.8125 4.16667 10.7109 4.35938 10.7109H5.79688C5.99479 10.7109 6.09375 10.8125 6.09375 11.0156V12.4141C6.09375 12.6172 5.99479 12.7188 5.79688 12.7188H4.35938ZM7.64844 12.7188C7.45573 12.7188 7.35938 12.6172 7.35938 12.4141V11.0156C7.35938 10.8125 7.45573 10.7109 7.64844 10.7109H9.08594C9.28385 10.7109 9.38281 10.8125 9.38281 11.0156V12.4141C9.38281 12.6172 9.28385 12.7188 9.08594 12.7188H7.64844ZM4.25 18.9141V15.9062C4.25 15.599 4.32812 15.362 4.48438 15.1953C4.64062 15.0286 4.86458 14.9453 5.15625 14.9453H8.30469C8.60156 14.9453 8.82552 15.0286 8.97656 15.1953C9.13281 15.362 9.21094 15.599 9.21094 15.9062V18.9141H7.8125V16.4688C7.8125 16.3281 7.74219 16.2578 7.60156 16.2578H5.86719C5.72135 16.2578 5.64844 16.3281 5.64844 16.4688V18.9141H4.25Z" fill="#64748B"/>
</svg>
