<svg width="18" height="18" viewBox="0 0 18 18" fill="none" xmlns="http://www.w3.org/2000/svg">
<path d="M10.1875 17.1875C9.79167 17.1875 9.49219 17.0521 9.28906 16.7812C9.08594 16.5156 8.92448 16.1797 8.80469 15.7734L7.65625 12.0625C7.56771 11.7656 7.53646 11.5 7.5625 11.2656C7.59375 11.026 7.70573 10.7995 7.89844 10.5859L16.0391 1.67969C16.0964 1.6224 16.1224 1.5599 16.1172 1.49219C16.1172 1.41927 16.0938 1.36198 16.0469 1.32031C16 1.27344 15.9427 1.25 15.875 1.25C15.8073 1.24479 15.7448 1.27083 15.6875 1.32812L6.77344 9.48438C6.53906 9.69271 6.3125 9.80729 6.09375 9.82812C5.875 9.84375 5.60938 9.80208 5.29688 9.70312L1.54688 8.54688C1.14583 8.42708 0.815104 8.26823 0.554688 8.07031C0.299479 7.86719 0.171875 7.56771 0.171875 7.17188C0.171875 6.83854 0.286458 6.55729 0.515625 6.32812C0.744792 6.09375 1.03646 5.91146 1.39062 5.78125L15.0859 0.539062C15.2474 0.476562 15.401 0.429688 15.5469 0.398438C15.6979 0.367188 15.8385 0.351562 15.9688 0.351562C16.2865 0.351562 16.5391 0.445312 16.7266 0.632812C16.9193 0.820312 17.0156 1.07552 17.0156 1.39844C17.0156 1.52344 16.9974 1.66146 16.9609 1.8125C16.9297 1.95833 16.8828 2.11458 16.8203 2.28125L11.6016 15.9375C11.4557 16.3125 11.2656 16.6146 11.0312 16.8438C10.8021 17.0729 10.5208 17.1875 10.1875 17.1875Z" fill="#64748B"/>
</svg>
