<svg width="18" height="17" viewBox="0 0 18 17" fill="none" xmlns="http://www.w3.org/2000/svg">
<path d="M8.99219 16.6094C7.85677 16.6094 6.78906 16.3932 5.78906 15.9609C4.79427 15.5339 3.91927 14.9427 3.16406 14.1875C2.40885 13.4323 1.8151 12.5573 1.38281 11.5625C0.955729 10.5625 0.742188 9.49479 0.742188 8.35938C0.742188 7.21875 0.955729 6.15104 1.38281 5.15625C1.8151 4.15625 2.40885 3.27865 3.16406 2.52344C3.91927 1.76823 4.79427 1.17708 5.78906 0.75C6.78906 0.322917 7.85677 0.109375 8.99219 0.109375C10.1328 0.109375 11.2005 0.322917 12.1953 0.75C13.1953 1.17708 14.0729 1.76823 14.8281 2.52344C15.5833 3.27865 16.1745 4.15625 16.6016 5.15625C17.0339 6.15104 17.25 7.21875 17.25 8.35938C17.25 9.49479 17.0339 10.5625 16.6016 11.5625C16.1745 12.5573 15.5833 13.4323 14.8281 14.1875C14.0729 14.9427 13.1953 15.5339 12.1953 15.9609C11.2005 16.3932 10.1328 16.6094 8.99219 16.6094ZM8.99219 12.8047C9.0599 12.8047 9.11458 12.7812 9.15625 12.7344C9.20312 12.6823 9.22656 12.625 9.22656 12.5625V11.875C9.67448 11.849 10.0911 11.7578 10.4766 11.6016C10.8672 11.4453 11.1823 11.2161 11.4219 10.9141C11.6615 10.612 11.7812 10.2266 11.7812 9.75781C11.7812 9.34115 11.6875 9.00521 11.5 8.75C11.3125 8.48958 11.0573 8.28646 10.7344 8.14062C10.4115 7.98958 10.0495 7.86979 9.64844 7.78125L9.22656 7.6875V5.875C9.47656 5.90625 9.69271 5.98177 9.875 6.10156C10.0573 6.22135 10.1979 6.39062 10.2969 6.60938C10.3698 6.75 10.4609 6.85938 10.5703 6.9375C10.6849 7.01562 10.8203 7.05469 10.9766 7.05469C11.138 7.05469 11.2839 7.01042 11.4141 6.92188C11.5443 6.82812 11.6094 6.6875 11.6094 6.5C11.6094 6.17708 11.4974 5.89062 11.2734 5.64062C11.0495 5.39062 10.7578 5.1901 10.3984 5.03906C10.0391 4.88281 9.64844 4.78906 9.22656 4.75781V4.0625C9.22656 4 9.20312 3.94531 9.15625 3.89844C9.11458 3.85156 9.0599 3.82812 8.99219 3.82812C8.92448 3.82812 8.86719 3.85156 8.82031 3.89844C8.77344 3.94531 8.75 4 8.75 4.0625V4.75C8.3125 4.77604 7.90365 4.8724 7.52344 5.03906C7.14844 5.20052 6.84375 5.43229 6.60938 5.73438C6.38021 6.03125 6.26562 6.39323 6.26562 6.82031C6.26562 7.23177 6.36198 7.57031 6.55469 7.83594C6.7474 8.10156 7.0026 8.3099 7.32031 8.46094C7.63802 8.61198 7.98177 8.72917 8.35156 8.8125L8.75 8.89844V10.7656C8.45312 10.7448 8.20573 10.6771 8.00781 10.5625C7.8099 10.4427 7.65885 10.2604 7.55469 10.0156C7.47135 9.86458 7.38021 9.7526 7.28125 9.67969C7.18229 9.60156 7.05469 9.5625 6.89844 9.5625C6.71094 9.5625 6.55469 9.61458 6.42969 9.71875C6.30469 9.82292 6.24219 9.97135 6.24219 10.1641C6.24219 10.2891 6.27344 10.4245 6.33594 10.5703C6.49219 10.9661 6.78906 11.2786 7.22656 11.5078C7.66927 11.7318 8.17708 11.8568 8.75 11.8828V12.5625C8.75 12.625 8.77344 12.6823 8.82031 12.7344C8.86719 12.7812 8.92448 12.8047 8.99219 12.8047ZM7.66406 6.69531C7.66406 6.52865 7.71094 6.38802 7.80469 6.27344C7.90365 6.15885 8.03385 6.07031 8.19531 6.00781C8.36198 5.9401 8.54688 5.89323 8.75 5.86719V7.57812L8.67188 7.55469C8.46354 7.5026 8.28385 7.4401 8.13281 7.36719C7.98698 7.29427 7.8724 7.20312 7.78906 7.09375C7.70573 6.98438 7.66406 6.85156 7.66406 6.69531ZM9.22656 10.7734V9L9.3125 9.02344C9.60938 9.09115 9.86198 9.1875 10.0703 9.3125C10.2839 9.4375 10.3906 9.63542 10.3906 9.90625C10.3906 10.1875 10.2786 10.3958 10.0547 10.5312C9.83073 10.6667 9.55469 10.7474 9.22656 10.7734Z" fill="#64748B"/>
</svg>
