<svg width="20" height="16" viewBox="0 0 20 16" fill="none" xmlns="http://www.w3.org/2000/svg">
<path d="M10.0156 9.88281C9.51562 9.88281 9.04948 9.74479 8.61719 9.46875C8.1849 9.19271 7.83594 8.82031 7.57031 8.35156C7.30469 7.8776 7.17188 7.35156 7.17188 6.77344C7.17188 6.19531 7.30469 5.67708 7.57031 5.21875C7.83594 4.75521 8.1849 4.39062 8.61719 4.125C9.04948 3.85938 9.51562 3.72656 10.0156 3.72656C10.5208 3.72656 10.9896 3.85677 11.4219 4.11719C11.8542 4.3776 12.2031 4.73698 12.4688 5.19531C12.7344 5.64844 12.8672 6.16667 12.8672 6.75C12.8672 7.33854 12.7344 7.86979 12.4688 8.34375C12.2031 8.8125 11.8542 9.1875 11.4219 9.46875C10.9896 9.74479 10.5208 9.88281 10.0156 9.88281ZM5.92188 15.9297C5.30208 15.9297 4.875 15.8411 4.64062 15.6641C4.41146 15.487 4.29688 15.237 4.29688 14.9141C4.29688 14.4714 4.42708 14.0078 4.6875 13.5234C4.95312 13.0339 5.33333 12.5781 5.82812 12.1562C6.32812 11.7292 6.92969 11.3828 7.63281 11.1172C8.34115 10.8464 9.13542 10.7109 10.0156 10.7109C10.901 10.7109 11.6953 10.8464 12.3984 11.1172C13.1016 11.3828 13.7031 11.7292 14.2031 12.1562C14.7031 12.5781 15.0833 13.0339 15.3438 13.5234C15.6094 14.0078 15.7422 14.4714 15.7422 14.9141C15.7422 15.237 15.625 15.487 15.3906 15.6641C15.1562 15.8411 14.7292 15.9297 14.1094 15.9297H5.92188ZM1.17969 2.01562C1.02865 2.01562 0.901042 1.96354 0.796875 1.85938C0.692708 1.75 0.640625 1.61979 0.640625 1.46875C0.640625 1.32292 0.692708 1.19792 0.796875 1.09375C0.901042 0.984375 1.02865 0.929688 1.17969 0.929688C1.32552 0.929688 1.45052 0.984375 1.55469 1.09375C1.65885 1.19792 1.71094 1.32292 1.71094 1.46875C1.71094 1.61979 1.65885 1.75 1.55469 1.85938C1.45052 1.96354 1.32552 2.01562 1.17969 2.01562ZM3.69531 2.01562C3.54427 2.01562 3.41667 1.96354 3.3125 1.85938C3.20833 1.75 3.15625 1.61979 3.15625 1.46875C3.15625 1.32292 3.20833 1.19792 3.3125 1.09375C3.41667 0.984375 3.54427 0.929688 3.69531 0.929688C3.84115 0.929688 3.96615 0.984375 4.07031 1.09375C4.17969 1.19792 4.23438 1.32292 4.23438 1.46875C4.23438 1.61979 4.17969 1.75 4.07031 1.85938C3.96615 1.96354 3.84115 2.01562 3.69531 2.01562ZM6.21094 2.01562C6.0651 2.01562 5.9375 1.96354 5.82812 1.85938C5.72396 1.75 5.67188 1.61979 5.67188 1.46875C5.67188 1.32292 5.72396 1.19792 5.82812 1.09375C5.9375 0.984375 6.0651 0.929688 6.21094 0.929688C6.36198 0.929688 6.48958 0.984375 6.59375 1.09375C6.69792 1.19792 6.75 1.32292 6.75 1.46875C6.75 1.61979 6.69792 1.75 6.59375 1.85938C6.48958 1.96354 6.36198 2.01562 6.21094 2.01562ZM8.73438 2.21094C8.53125 2.21094 8.35677 2.13802 8.21094 1.99219C8.0651 1.84635 7.99219 1.67188 7.99219 1.46875C7.99219 1.26562 8.0651 1.09115 8.21094 0.945312C8.35677 0.799479 8.53125 0.726562 8.73438 0.726562C8.9375 0.726562 9.11198 0.799479 9.25781 0.945312C9.40365 1.09115 9.47656 1.26562 9.47656 1.46875C9.47656 1.67188 9.40365 1.84635 9.25781 1.99219C9.11198 2.13802 8.9375 2.21094 8.73438 2.21094ZM11.25 2.21094C11.0469 2.21094 10.8724 2.13802 10.7266 1.99219C10.5807 1.84635 10.5078 1.67188 10.5078 1.46875C10.5078 1.26562 10.5807 1.09115 10.7266 0.945312C10.8724 0.799479 11.0469 0.726562 11.25 0.726562C11.4531 0.726562 11.6276 0.799479 11.7734 0.945312C11.9193 1.09115 11.9922 1.26562 11.9922 1.46875C11.9922 1.67188 11.9193 1.84635 11.7734 1.99219C11.6276 2.13802 11.4531 2.21094 11.25 2.21094ZM13.7812 2.01562C13.6302 2.01562 13.5026 1.96354 13.3984 1.85938C13.2943 1.75 13.2422 1.61979 13.2422 1.46875C13.2422 1.32292 13.2943 1.19792 13.3984 1.09375C13.5026 0.984375 13.6302 0.929688 13.7812 0.929688C13.9271 0.929688 14.0521 0.984375 14.1562 1.09375C14.2656 1.19792 14.3203 1.32292 14.3203 1.46875C14.3203 1.61979 14.2656 1.75 14.1562 1.85938C14.0521 1.96354 13.9271 2.01562 13.7812 2.01562ZM16.3047 2.01562C16.1536 2.01562 16.0234 1.96354 15.9141 1.85938C15.8099 1.75 15.7578 1.61979 15.7578 1.46875C15.7578 1.32292 15.8099 1.19792 15.9141 1.09375C16.0234 0.984375 16.1536 0.929688 16.3047 0.929688C16.4505 0.929688 16.5755 0.984375 16.6797 1.09375C16.7891 1.19792 16.8438 1.32292 16.8438 1.46875C16.8438 1.61979 16.7891 1.75 16.6797 1.85938C16.5755 1.96354 16.4505 2.01562 16.3047 2.01562ZM18.8203 2.01562C18.6745 2.01562 18.5469 1.96354 18.4375 1.85938C18.3333 1.75 18.2812 1.61979 18.2812 1.46875C18.2812 1.32292 18.3333 1.19792 18.4375 1.09375C18.5469 0.984375 18.6745 0.929688 18.8203 0.929688C18.9661 0.929688 19.0911 0.984375 19.1953 1.09375C19.3047 1.19792 19.3594 1.32292 19.3594 1.46875C19.3594 1.61979 19.3047 1.75 19.1953 1.85938C19.0911 1.96354 18.9661 2.01562 18.8203 2.01562ZM1.17969 4.76562C1.02865 4.76562 0.901042 4.71354 0.796875 4.60938C0.692708 4.5 0.640625 4.3724 0.640625 4.22656C0.640625 4.07552 0.692708 3.94792 0.796875 3.84375C0.901042 3.73958 1.02865 3.6875 1.17969 3.6875C1.32552 3.6875 1.45052 3.73958 1.55469 3.84375C1.65885 3.94792 1.71094 4.07552 1.71094 4.22656C1.71094 4.3724 1.65885 4.5 1.55469 4.60938C1.45052 4.71354 1.32552 4.76562 1.17969 4.76562ZM3.69531 4.96875C3.48698 4.96875 3.3099 4.89583 3.16406 4.75C3.01823 4.60417 2.94531 4.42969 2.94531 4.22656C2.94531 4.02344 3.01823 3.84896 3.16406 3.70312C3.3099 3.55729 3.48698 3.48438 3.69531 3.48438C3.89844 3.48438 4.07292 3.55729 4.21875 3.70312C4.36458 3.84896 4.4375 4.02344 4.4375 4.22656C4.4375 4.42969 4.36458 4.60417 4.21875 4.75C4.07292 4.89583 3.89844 4.96875 3.69531 4.96875ZM6.21094 4.96875C6.00781 4.96875 5.83333 4.89583 5.6875 4.75C5.54167 4.60417 5.46875 4.42969 5.46875 4.22656C5.46875 4.02344 5.54167 3.84896 5.6875 3.70312C5.83333 3.55729 6.00781 3.48438 6.21094 3.48438C6.39323 3.48438 6.55208 3.54427 6.6875 3.66406C6.82812 3.78385 6.91146 3.92969 6.9375 4.10156C6.72396 4.36719 6.55469 4.64062 6.42969 4.92188C6.35677 4.95312 6.28385 4.96875 6.21094 4.96875ZM13.7812 4.96875C13.7083 4.96875 13.6484 4.96094 13.6016 4.94531C13.4609 4.63281 13.2812 4.33854 13.0625 4.0625C13.0938 3.89583 13.1771 3.75781 13.3125 3.64844C13.4479 3.53906 13.6042 3.48438 13.7812 3.48438C13.9896 3.48438 14.1641 3.55729 14.3047 3.70312C14.4505 3.84896 14.5234 4.02344 14.5234 4.22656C14.5234 4.42969 14.4505 4.60417 14.3047 4.75C14.1641 4.89583 13.9896 4.96875 13.7812 4.96875ZM16.3047 4.96875C16.0964 4.96875 15.9193 4.89583 15.7734 4.75C15.6276 4.60417 15.5547 4.42969 15.5547 4.22656C15.5547 4.02344 15.6276 3.84896 15.7734 3.70312C15.9193 3.55729 16.0964 3.48438 16.3047 3.48438C16.5078 3.48438 16.6823 3.55729 16.8281 3.70312C16.974 3.84896 17.0469 4.02344 17.0469 4.22656C17.0469 4.42969 16.974 4.60417 16.8281 4.75C16.6823 4.89583 16.5078 4.96875 16.3047 4.96875ZM18.8203 4.76562C18.6745 4.76562 18.5469 4.71354 18.4375 4.60938C18.3333 4.5 18.2812 4.3724 18.2812 4.22656C18.2812 4.07552 18.3333 3.94792 18.4375 3.84375C18.5469 3.73958 18.6745 3.6875 18.8203 3.6875C18.9661 3.6875 19.0911 3.73958 19.1953 3.84375C19.3047 3.94792 19.3594 4.07552 19.3594 4.22656C19.3594 4.3724 19.3047 4.5 19.1953 4.60938C19.0911 4.71354 18.9661 4.76562 18.8203 4.76562ZM1.17969 7.72656C0.971354 7.72656 0.794271 7.65365 0.648438 7.50781C0.502604 7.35677 0.429688 7.17969 0.429688 6.97656C0.429688 6.77344 0.502604 6.59896 0.648438 6.45312C0.794271 6.30729 0.971354 6.23438 1.17969 6.23438C1.3776 6.23438 1.54948 6.30729 1.69531 6.45312C1.84115 6.59896 1.91406 6.77344 1.91406 6.97656C1.91406 7.17969 1.84115 7.35677 1.69531 7.50781C1.54948 7.65365 1.3776 7.72656 1.17969 7.72656ZM3.69531 7.92969C3.4349 7.92969 3.21094 7.83594 3.02344 7.64844C2.84115 7.46094 2.75 7.23698 2.75 6.97656C2.75 6.71615 2.84115 6.49479 3.02344 6.3125C3.21094 6.125 3.4349 6.03125 3.69531 6.03125C3.95052 6.03125 4.17188 6.125 4.35938 6.3125C4.54688 6.49479 4.64062 6.71615 4.64062 6.97656C4.64062 7.23698 4.54688 7.46094 4.35938 7.64844C4.17188 7.83594 3.95052 7.92969 3.69531 7.92969ZM5.26562 6.97656C5.26562 6.73698 5.34375 6.52865 5.5 6.35156C5.66146 6.17448 5.85677 6.07031 6.08594 6.03906C6.0651 6.15885 6.04948 6.27865 6.03906 6.39844C6.02865 6.51823 6.02344 6.64323 6.02344 6.77344C6.02344 7.1849 6.07292 7.57031 6.17188 7.92969C5.92708 7.91927 5.71354 7.82292 5.53125 7.64062C5.35417 7.45312 5.26562 7.23177 5.26562 6.97656ZM14.7344 6.97656C14.7344 7.22656 14.6458 7.44531 14.4688 7.63281C14.2917 7.8151 14.0833 7.91406 13.8438 7.92969C13.9427 7.5651 13.9922 7.17708 13.9922 6.76562C13.9922 6.51562 13.974 6.27604 13.9375 6.04688C14.1562 6.08333 14.3438 6.1901 14.5 6.36719C14.6562 6.53906 14.7344 6.74219 14.7344 6.97656ZM16.3047 7.92969C16.0443 7.92969 15.8203 7.83594 15.6328 7.64844C15.4453 7.46094 15.3516 7.23698 15.3516 6.97656C15.3516 6.71615 15.4453 6.49479 15.6328 6.3125C15.8203 6.125 16.0443 6.03125 16.3047 6.03125C16.5599 6.03125 16.7812 6.125 16.9688 6.3125C17.1562 6.49479 17.25 6.71615 17.25 6.97656C17.25 7.23698 17.1562 7.46094 16.9688 7.64844C16.7812 7.83594 16.5599 7.92969 16.3047 7.92969ZM18.8203 7.72656C18.6172 7.72656 18.4427 7.65365 18.2969 7.50781C18.151 7.35677 18.0781 7.17969 18.0781 6.97656C18.0781 6.77344 18.151 6.59896 18.2969 6.45312C18.4427 6.30729 18.6172 6.23438 18.8203 6.23438C19.0234 6.23438 19.1979 6.30729 19.3438 6.45312C19.4896 6.59896 19.5625 6.77344 19.5625 6.97656C19.5625 7.17969 19.4896 7.35677 19.3438 7.50781C19.1979 7.65365 19.0234 7.72656 18.8203 7.72656ZM1.17969 10.4766C0.971354 10.4766 0.794271 10.4036 0.648438 10.2578C0.502604 10.112 0.429688 9.9375 0.429688 9.73438C0.429688 9.53125 0.502604 9.35677 0.648438 9.21094C0.794271 9.0651 0.971354 8.99219 1.17969 8.99219C1.3776 8.99219 1.54948 9.0651 1.69531 9.21094C1.84115 9.35677 1.91406 9.53125 1.91406 9.73438C1.91406 9.9375 1.84115 10.112 1.69531 10.2578C1.54948 10.4036 1.3776 10.4766 1.17969 10.4766ZM3.69531 10.6797C3.4349 10.6797 3.21094 10.5885 3.02344 10.4062C2.84115 10.2188 2.75 9.99479 2.75 9.73438C2.75 9.47396 2.84115 9.25 3.02344 9.0625C3.21094 8.875 3.4349 8.78125 3.69531 8.78125C3.95052 8.78125 4.17188 8.875 4.35938 9.0625C4.54688 9.25 4.64062 9.47396 4.64062 9.73438C4.64062 9.99479 4.54688 10.2188 4.35938 10.4062C4.17188 10.5885 3.95052 10.6797 3.69531 10.6797ZM5.71875 10.5156C5.58333 10.4323 5.47396 10.3229 5.39062 10.1875C5.30729 10.0469 5.26562 9.89583 5.26562 9.73438C5.26562 9.48958 5.35156 9.27865 5.52344 9.10156C5.70052 8.92448 5.91146 8.83594 6.15625 8.83594C6.42188 8.83594 6.64323 8.9375 6.82031 9.14062C6.9974 9.33854 7.07292 9.57292 7.04688 9.84375C6.80729 9.9375 6.57552 10.0417 6.35156 10.1562C6.13281 10.2656 5.92188 10.3854 5.71875 10.5156ZM14.2969 10.4922C14.0885 10.3672 13.8724 10.25 13.6484 10.1406C13.4245 10.026 13.1901 9.92448 12.9453 9.83594C12.9193 9.5651 12.9948 9.33073 13.1719 9.13281C13.349 8.9349 13.5703 8.83594 13.8359 8.83594C14.0807 8.83594 14.2917 8.92448 14.4688 9.10156C14.6458 9.27865 14.7344 9.48958 14.7344 9.73438C14.7344 9.89062 14.6927 10.0391 14.6094 10.1797C14.526 10.3151 14.4219 10.4193 14.2969 10.4922ZM16.3047 10.6797C16.0443 10.6797 15.8203 10.5885 15.6328 10.4062C15.4453 10.2188 15.3516 9.99479 15.3516 9.73438C15.3516 9.47396 15.4453 9.25 15.6328 9.0625C15.8203 8.875 16.0443 8.78125 16.3047 8.78125C16.5599 8.78125 16.7812 8.875 16.9688 9.0625C17.1562 9.25 17.25 9.47396 17.25 9.73438C17.25 9.99479 17.1562 10.2188 16.9688 10.4062C16.7812 10.5885 16.5599 10.6797 16.3047 10.6797ZM18.8203 10.4766C18.6172 10.4766 18.4427 10.4036 18.2969 10.2578C18.151 10.112 18.0781 9.9375 18.0781 9.73438C18.0781 9.53125 18.151 9.35677 18.2969 9.21094C18.4427 9.0651 18.6172 8.99219 18.8203 8.99219C19.0234 8.99219 19.1979 9.0651 19.3438 9.21094C19.4896 9.35677 19.5625 9.53125 19.5625 9.73438C19.5625 9.9375 19.4896 10.112 19.3438 10.2578C19.1979 10.4036 19.0234 10.4766 18.8203 10.4766ZM1.17969 13.0234C1.02865 13.0234 0.901042 12.9714 0.796875 12.8672C0.692708 12.763 0.640625 12.6354 0.640625 12.4844C0.640625 12.3385 0.692708 12.2135 0.796875 12.1094C0.901042 12 1.02865 11.9453 1.17969 11.9453C1.32552 11.9453 1.45052 12 1.55469 12.1094C1.65885 12.2135 1.71094 12.3385 1.71094 12.4844C1.71094 12.6354 1.65885 12.763 1.55469 12.8672C1.45052 12.9714 1.32552 13.0234 1.17969 13.0234ZM3.32812 13.125C3.07292 12.9844 2.94531 12.7708 2.94531 12.4844C2.94531 12.2812 3.01823 12.1068 3.16406 11.9609C3.3099 11.8151 3.48698 11.7422 3.69531 11.7422C3.85156 11.7422 3.99479 11.7917 4.125 11.8906C3.80208 12.276 3.53646 12.6875 3.32812 13.125ZM16.7031 13.1094C16.4896 12.6667 16.2214 12.2526 15.8984 11.8672C16.0182 11.7839 16.1536 11.7422 16.3047 11.7422C16.5078 11.7422 16.6823 11.8151 16.8281 11.9609C16.974 12.1068 17.0469 12.2812 17.0469 12.4844C17.0469 12.75 16.9323 12.9583 16.7031 13.1094ZM18.8203 13.0234C18.6745 13.0234 18.5469 12.9714 18.4375 12.8672C18.3333 12.763 18.2812 12.6354 18.2812 12.4844C18.2812 12.3385 18.3333 12.2135 18.4375 12.1094C18.5469 12 18.6745 11.9453 18.8203 11.9453C18.9661 11.9453 19.0911 12 19.1953 12.1094C19.3047 12.2135 19.3594 12.3385 19.3594 12.4844C19.3594 12.6354 19.3047 12.763 19.1953 12.8672C19.0911 12.9714 18.9661 13.0234 18.8203 13.0234ZM1.17969 15.7812C1.02865 15.7812 0.901042 15.7266 0.796875 15.6172C0.692708 15.513 0.640625 15.388 0.640625 15.2422C0.640625 15.0964 0.692708 14.9688 0.796875 14.8594C0.901042 14.7552 1.02865 14.7031 1.17969 14.7031C1.32552 14.7031 1.45052 14.7552 1.55469 14.8594C1.65885 14.9688 1.71094 15.0964 1.71094 15.2422C1.71094 15.388 1.65885 15.513 1.55469 15.6172C1.45052 15.7266 1.32552 15.7812 1.17969 15.7812ZM18.8203 15.7812C18.6745 15.7812 18.5469 15.7266 18.4375 15.6172C18.3333 15.513 18.2812 15.388 18.2812 15.2422C18.2812 15.0964 18.3333 14.9688 18.4375 14.8594C18.5469 14.7552 18.6745 14.7031 18.8203 14.7031C18.9661 14.7031 19.0911 14.7552 19.1953 14.8594C19.3047 14.9688 19.3594 15.0964 19.3594 15.2422C19.3594 15.388 19.3047 15.513 19.1953 15.6172C19.0911 15.7266 18.9661 15.7812 18.8203 15.7812Z" fill="#64748B"/>
</svg>
