<svg width="20" height="19" viewBox="0 0 20 19" fill="none" xmlns="http://www.w3.org/2000/svg">
<path d="M4.25781 12.5156C3.13281 12.5156 2.27083 12.2266 1.67188 11.6484C1.07292 11.0651 0.773438 10.2318 0.773438 9.14844V8.07812C0.773438 6.99479 1.07292 6.16406 1.67188 5.58594C2.27083 5.0026 3.13281 4.71094 4.25781 4.71094H5.67969V12.5156H4.25781ZM6.90625 12.5234V4.71094C7.61458 4.63281 8.40365 4.49479 9.27344 4.29688C10.1432 4.09896 11.0208 3.85156 11.9062 3.55469C12.7969 3.2526 13.6224 2.90885 14.3828 2.52344C14.3828 2.58073 14.3802 2.63542 14.375 2.6875C14.375 2.73958 14.375 2.79427 14.375 2.85156V14.3516C14.375 14.4089 14.375 14.4688 14.375 14.5312C14.3802 14.5885 14.3854 14.6458 14.3906 14.7031C13.5938 14.3073 12.763 13.9635 11.8984 13.6719C11.0391 13.3802 10.1823 13.138 9.32812 12.9453C8.47917 12.7526 7.67188 12.612 6.90625 12.5234ZM17.3906 16.4844C17.0417 16.4844 16.7266 16.4036 16.4453 16.2422C16.1693 16.0859 15.9505 15.8672 15.7891 15.5859C15.6328 15.3099 15.5547 14.9974 15.5547 14.6484V2.50781C15.5547 2.15885 15.6328 1.84635 15.7891 1.57031C15.9505 1.28906 16.1693 1.07031 16.4453 0.914062C16.7266 0.752604 17.0417 0.671875 17.3906 0.671875C17.7396 0.671875 18.0521 0.752604 18.3281 0.914062C18.6042 1.07031 18.8203 1.28906 18.9766 1.57031C19.138 1.84635 19.2188 2.15885 19.2188 2.50781V14.6484C19.2188 14.9974 19.138 15.3099 18.9766 15.5859C18.8203 15.8672 18.6042 16.0859 18.3281 16.2422C18.0521 16.4036 17.7396 16.4844 17.3906 16.4844ZM7.5625 18.0469C7.04688 18.0469 6.64062 17.9193 6.34375 17.6641C6.05208 17.4141 5.79167 17.0599 5.5625 16.6016L4.10156 13.6875C4.19531 13.6875 4.28385 13.6901 4.36719 13.6953C4.45052 13.6953 4.52344 13.6953 4.58594 13.6953C5.61198 13.7109 6.4401 13.75 7.07031 13.8125C7.70052 13.8698 8.23958 13.9479 8.6875 14.0469L9.14062 15.9062C9.25 16.3333 9.24219 16.7057 9.11719 17.0234C8.9974 17.3464 8.79688 17.5964 8.51562 17.7734C8.23958 17.9557 7.92188 18.0469 7.5625 18.0469Z" fill="#64748B"/>
</svg>
