<svg width="27" height="17" viewBox="0 0 27 17" fill="none" xmlns="http://www.w3.org/2000/svg">
<path d="M5.875 9.32812C5.36458 9.32812 4.89844 9.19271 4.47656 8.92188C4.0599 8.65104 3.72396 8.28646 3.46875 7.82812C3.21875 7.36458 3.09375 6.85156 3.09375 6.28906C3.09375 5.73698 3.21875 5.23438 3.46875 4.78125C3.72396 4.32812 4.0625 3.96615 4.48438 3.69531C4.90625 3.42448 5.36979 3.28906 5.875 3.28906C6.38542 3.28906 6.84896 3.42448 7.26562 3.69531C7.6875 3.96094 8.02604 4.32031 8.28125 4.77344C8.53646 5.22135 8.66406 5.72396 8.66406 6.28125C8.66406 6.84896 8.53646 7.36458 8.28125 7.82812C8.03125 8.28646 7.69531 8.65104 7.27344 8.92188C6.85156 9.19271 6.38542 9.32812 5.875 9.32812ZM1.64844 16.4844C1.07031 16.4844 0.664062 16.3594 0.429688 16.1094C0.200521 15.8646 0.0859375 15.5208 0.0859375 15.0781C0.0859375 14.5677 0.223958 14.0443 0.5 13.5078C0.78125 12.9714 1.17708 12.4766 1.6875 12.0234C2.20312 11.5703 2.8151 11.2031 3.52344 10.9219C4.23177 10.6406 5.01562 10.5 5.875 10.5C6.54167 10.5 7.15104 10.5859 7.70312 10.7578C8.26042 10.9297 8.75 11.1458 9.17188 11.4062C8.69792 11.7865 8.29688 12.2057 7.96875 12.6641C7.64583 13.1172 7.40104 13.5807 7.23438 14.0547C7.07292 14.5234 7 14.9688 7.01562 15.3906C7.03646 15.8125 7.15625 16.1771 7.375 16.4844H1.64844ZM14.9688 9.15625C14.3854 9.15625 13.8516 9 13.3672 8.6875C12.8828 8.375 12.4948 7.95573 12.2031 7.42969C11.9167 6.90365 11.7734 6.3151 11.7734 5.66406C11.7734 5.02865 11.9167 4.45052 12.2031 3.92969C12.4948 3.40885 12.8828 2.99479 13.3672 2.6875C13.8516 2.38021 14.3854 2.22656 14.9688 2.22656C15.5521 2.22656 16.0859 2.38021 16.5703 2.6875C17.0547 2.98958 17.4401 3.40104 17.7266 3.92188C18.0182 4.44271 18.1641 5.01823 18.1641 5.64844C18.1641 6.30469 18.0182 6.89844 17.7266 7.42969C17.4401 7.95573 17.0547 8.375 16.5703 8.6875C16.0859 9 15.5521 9.15625 14.9688 9.15625ZM10.1562 16.4844C9.46875 16.4844 8.98958 16.375 8.71875 16.1562C8.45312 15.9427 8.32031 15.6432 8.32031 15.2578C8.32031 14.7578 8.47396 14.2344 8.78125 13.6875C9.09375 13.1354 9.53906 12.6198 10.1172 12.1406C10.7005 11.6615 11.401 11.2734 12.2188 10.9766C13.0365 10.6745 13.9505 10.5234 14.9609 10.5234C15.9766 10.5234 16.8932 10.6745 17.7109 10.9766C18.5286 11.2734 19.2266 11.6615 19.8047 12.1406C20.388 12.6198 20.8333 13.1354 21.1406 13.6875C21.4531 14.2344 21.6094 14.7578 21.6094 15.2578C21.6094 15.6432 21.474 15.9427 21.2031 16.1562C20.9375 16.375 20.4609 16.4844 19.7734 16.4844H10.1562ZM20.8672 8.77344C20.7109 8.61719 20.6328 8.4375 20.6328 8.23438C20.638 8.03125 20.7083 7.83854 20.8438 7.65625C21.0208 7.40104 21.1641 7.08854 21.2734 6.71875C21.388 6.34375 21.4453 5.96875 21.4453 5.59375C21.4453 5.21875 21.388 4.84375 21.2734 4.46875C21.1641 4.08854 21.0208 3.77344 20.8438 3.52344C20.7083 3.34115 20.638 3.14844 20.6328 2.94531C20.6328 2.74219 20.7109 2.5625 20.8672 2.40625C21.0234 2.24479 21.2188 2.17188 21.4531 2.1875C21.6875 2.19792 21.8932 2.30469 22.0703 2.50781C22.3776 2.8776 22.612 3.33333 22.7734 3.875C22.9401 4.41667 23.0234 4.98958 23.0234 5.59375C23.0234 6.19271 22.9401 6.76562 22.7734 7.3125C22.612 7.85417 22.3776 8.30469 22.0703 8.66406C21.8932 8.8724 21.6875 8.98438 21.4531 9C21.2188 9.01042 21.0234 8.9349 20.8672 8.77344ZM23.6953 10.9297C23.5391 10.7786 23.4635 10.6016 23.4688 10.3984C23.4792 10.1953 23.5573 10.0052 23.7031 9.82812C24.125 9.27604 24.4531 8.63542 24.6875 7.90625C24.9271 7.17188 25.0469 6.40104 25.0469 5.59375C25.0469 4.78646 24.9297 4.01562 24.6953 3.28125C24.4661 2.54688 24.1354 1.90625 23.7031 1.35938C23.5521 1.17708 23.4714 0.986979 23.4609 0.789062C23.4557 0.585938 23.5339 0.408854 23.6953 0.257812C23.8672 0.0963542 24.0677 0.0182292 24.2969 0.0234375C24.526 0.0286458 24.7344 0.143229 24.9219 0.367188C25.4531 1.0026 25.8672 1.78646 26.1641 2.71875C26.4661 3.64583 26.6172 4.60417 26.6172 5.59375C26.6172 6.58854 26.474 7.54427 26.1875 8.46094C25.901 9.3724 25.4792 10.1589 24.9219 10.8203C24.7292 11.0391 24.5182 11.1536 24.2891 11.1641C24.0599 11.1693 23.862 11.0911 23.6953 10.9297Z" fill="#64748B"/>
</svg>
