<svg width="18" height="17" viewBox="0 0 18 17" fill="none" xmlns="http://www.w3.org/2000/svg">
<path d="M0.148438 15.3047V1.64844C0.148438 1.36198 0.242188 1.11979 0.429688 0.921875C0.622396 0.723958 0.867188 0.625 1.16406 0.625C1.45573 0.625 1.69531 0.723958 1.88281 0.921875C2.07031 1.11979 2.16406 1.36198 2.16406 1.64844V13.8281C2.16406 13.9688 2.23438 14.0391 2.375 14.0391H16.7422C17.0286 14.0391 17.2708 14.1328 17.4688 14.3203C17.6667 14.513 17.7656 14.7552 17.7656 15.0469C17.7656 15.3438 17.6667 15.5859 17.4688 15.7734C17.2708 15.9609 17.0286 16.0547 16.7422 16.0547H0.90625C0.677083 16.0547 0.492188 15.9844 0.351562 15.8438C0.216146 15.7083 0.148438 15.5286 0.148438 15.3047ZM1.99219 10.9531L0.664062 9.625L4.23438 5.99219C4.44271 5.77344 4.64583 5.61979 4.84375 5.53125C5.04688 5.4375 5.25521 5.39062 5.46875 5.39062C5.6875 5.39062 5.89844 5.4375 6.10156 5.53125C6.3099 5.625 6.51302 5.77865 6.71094 5.99219L9.35156 8.76562C9.41406 8.83854 9.47917 8.875 9.54688 8.875C9.61979 8.875 9.6875 8.84115 9.75 8.77344L12.7031 5.72656L11.6172 4.63281C11.4714 4.48698 11.3958 4.33073 11.3906 4.16406C11.3906 3.9974 11.4479 3.84635 11.5625 3.71094C11.6771 3.57031 11.8359 3.47396 12.0391 3.42188L16.6641 2.21875C16.8464 2.17188 17.0156 2.1875 17.1719 2.26562C17.3281 2.34375 17.4453 2.46094 17.5234 2.61719C17.6068 2.77344 17.625 2.94531 17.5781 3.13281L16.3672 7.75781C16.3151 7.96094 16.2188 8.11979 16.0781 8.23438C15.9375 8.34375 15.7839 8.39844 15.6172 8.39844C15.4505 8.39844 15.2943 8.32552 15.1484 8.17969L14.0312 7.05469L10.7891 10.3203C10.388 10.7161 9.97396 10.9141 9.54688 10.9141C9.32812 10.9141 9.11458 10.8672 8.90625 10.7734C8.69792 10.6797 8.4974 10.526 8.30469 10.3125L5.66406 7.53906C5.60156 7.47135 5.53646 7.4375 5.46875 7.4375C5.40104 7.4375 5.33594 7.47135 5.27344 7.53906L1.99219 10.9531Z" fill="#64748B"/>
</svg>
